<svg width="282" height="336" viewBox="0 0 282 336" fill="none" xmlns="http://www.w3.org/2000/svg">
<g clip-path="url(#clip0_1504_3842)">
<rect y="0.0283203" width="281.317" height="335.606" rx="24.6769" fill="#2C3659"/>
<g opacity="0.32" filter="url(#filter0_f_1504_3842)">
<ellipse cx="143.743" cy="24.705" rx="68.4785" ry="18.5077" fill="white"/>
</g>
<path d="M360.283 287.515C360.283 327.719 327.691 360.312 287.486 360.312C247.282 360.312 214.689 327.719 214.689 287.515C214.689 247.31 247.282 214.718 287.486 214.718C327.691 214.718 360.283 247.31 360.283 287.515ZM258.204 287.515C258.204 303.687 271.314 316.797 287.486 316.797C303.658 316.797 316.769 303.687 316.769 287.515C316.769 271.343 303.658 258.233 287.486 258.233C271.314 258.233 258.204 271.343 258.204 287.515Z" fill="#3C4669"/>
<path d="M260.342 31.4919C261.023 31.4919 261.58 30.9386 261.53 30.2591C261.277 26.8473 259.978 23.5849 257.795 20.9248C255.35 17.9459 251.948 15.9068 248.168 15.155C244.389 14.4032 240.465 14.9852 237.067 16.8018C233.668 18.6184 231.004 21.5572 229.53 25.1176C228.055 28.6779 227.86 32.6394 228.979 36.3271C230.098 40.0149 232.46 43.2006 235.665 45.3416C238.869 47.4826 242.716 48.4463 246.551 48.0686C249.976 47.7313 253.201 46.3431 255.793 44.1095C256.309 43.6647 256.306 42.8795 255.824 42.3976L250.529 37.1021C250.047 36.6202 249.271 36.6316 248.709 37.0171C247.783 37.6523 246.706 38.0484 245.575 38.1598C244.033 38.3117 242.485 37.9241 241.196 37.0629C239.907 36.2017 238.957 34.9202 238.507 33.4368C238.057 31.9535 238.135 30.36 238.729 28.9278C239.322 27.4957 240.393 26.3136 241.76 25.5829C243.127 24.8522 244.705 24.6181 246.226 24.9205C247.746 25.2229 249.115 26.0431 250.098 27.2414C250.819 28.1196 251.3 29.161 251.506 30.265C251.63 30.9349 252.171 31.4919 252.853 31.4919H260.342Z" fill="#3C4669"/>
<path d="M16.04 199.911C16.04 221.036 -1.08479 238.161 -22.2093 238.161C-43.3337 238.161 -60.4585 221.036 -60.4585 199.911C-60.4585 178.787 -43.3337 161.662 -22.2093 161.662C-1.08479 161.662 16.04 178.787 16.04 199.911ZM-37.5948 199.911C-37.5948 208.409 -30.7065 215.297 -22.2093 215.297C-13.7121 215.297 -6.82372 208.409 -6.82372 199.911C-6.82372 191.414 -13.7121 184.526 -22.2093 184.526C-30.7065 184.526 -37.5948 191.414 -37.5948 199.911Z" fill="#3C4669"/>
</g>
<defs>
<filter id="filter0_f_1504_3842" x="-19.7415" y="-88.8089" width="326.969" height="227.028" filterUnits="userSpaceOnUse" color-interpolation-filters="sRGB">
<feFlood flood-opacity="0" result="BackgroundImageFix"/>
<feBlend mode="normal" in="SourceGraphic" in2="BackgroundImageFix" result="shape"/>
<feGaussianBlur stdDeviation="47.5031" result="effect1_foregroundBlur_1504_3842"/>
</filter>
<clipPath id="clip0_1504_3842">
<rect y="0.0283203" width="281.317" height="335.606" rx="24.6769" fill="white"/>
</clipPath>
</defs>
</svg>
