<svg width="19" height="19" viewBox="0 0 19 19" fill="none" xmlns="http://www.w3.org/2000/svg">
<path d="M11.1634 3.54383C11.7238 2.93669 12.004 2.63313 12.3017 2.45605C13.0201 2.02879 13.9047 2.0155 14.6352 2.421C14.9378 2.58906 15.2266 2.88408 15.8042 3.47413C16.3818 4.06418 16.6707 4.35921 16.8351 4.66844C17.2321 5.41456 17.2191 6.31822 16.8009 7.0521C16.6275 7.35626 16.3303 7.64248 15.736 8.21492L8.66444 15.026C7.53815 16.1108 6.97499 16.6533 6.27117 16.9281C5.56734 17.2031 4.79359 17.1828 3.2461 17.1424L3.03555 17.1369C2.56445 17.1245 2.32889 17.1184 2.19196 16.9629C2.05503 16.8076 2.07373 16.5676 2.11112 16.0878L2.13142 15.8272C2.23665 14.4764 2.28926 13.8012 2.55302 13.1941C2.81676 12.587 3.27172 12.0941 4.18164 11.1082L11.1634 3.54383Z" stroke="white" stroke-width="1.504" stroke-linejoin="round"/>
<path d="M10.3564 3.62988L15.6204 8.89388" stroke="white" stroke-width="1.504" stroke-linejoin="round"/>
<path d="M11.1084 17.166H17.1244" stroke="white" stroke-width="1.504" stroke-linecap="round" stroke-linejoin="round"/>
</svg>
