<svg width="25" height="25" viewBox="0 0 25 25" fill="none" xmlns="http://www.w3.org/2000/svg">
<path d="M12.904 15.224C14.5653 15.224 15.912 13.8773 15.912 12.216C15.912 10.5547 14.5653 9.20801 12.904 9.20801C11.2427 9.20801 9.896 10.5547 9.896 12.216C9.896 13.8773 11.2427 15.224 12.904 15.224Z" stroke="black" stroke-width="1.504" stroke-miterlimit="10" stroke-linecap="round" stroke-linejoin="round"/>
<path d="M2.87744 13.0984V11.3337C2.87744 10.2909 3.72971 9.42861 4.78251 9.42861C6.59734 9.42861 7.33931 8.1452 6.42688 6.57101C5.9055 5.66861 6.21632 4.49549 7.12875 3.97411L8.86336 2.98146C9.65547 2.51021 10.6782 2.79096 11.1494 3.58307L11.2597 3.77357C12.1621 5.34776 13.6461 5.34776 14.5585 3.77357L14.6688 3.58307C15.1401 2.79096 16.1628 2.51021 16.9549 2.98146L18.6895 3.97411C19.6019 4.49549 19.9128 5.66861 19.3914 6.57101C18.4789 8.1452 19.2209 9.42861 21.0357 9.42861C22.0785 9.42861 22.9408 10.2809 22.9408 11.3337V13.0984C22.9408 14.1411 22.0885 15.0034 21.0357 15.0034C19.2209 15.0034 18.4789 16.2869 19.3914 17.861C19.9128 18.7735 19.6019 19.9366 18.6895 20.4579L16.9549 21.4506C16.1628 21.9218 15.1401 21.6411 14.6688 20.849L14.5585 20.6585C13.6561 19.0843 12.1722 19.0843 11.2597 20.6585L11.1494 20.849C10.6782 21.6411 9.65547 21.9218 8.86336 21.4506L7.12875 20.4579C6.21632 19.9366 5.9055 18.7634 6.42688 17.861C7.33931 16.2869 6.59734 15.0034 4.78251 15.0034C3.72971 15.0034 2.87744 14.1411 2.87744 13.0984Z" stroke="black" stroke-width="1.504" stroke-miterlimit="10" stroke-linecap="round" stroke-linejoin="round"/>
</svg>
